# xmcd CD database file
#
# Track frame offsets:
#       150
#       14345
#       31004
#       43649
#       53995
#       71873
#       86651
#       99766
#       118201
#       136331
#       143699
#       158355
#       173368
#       191438
#       219382
#
# Disc length: 3119 seconds
#
# Revision: 0
# Processed by: cddbd v1.4PL0 Copyright (c) Steve Scherf et al.
# Submitted via: jack 2.99.7
#
DISCID=bd0c2d0f
DTITLE=Lynn Connover and Susannah Weaver - Belle of the Ball
DYEAR=1900
DGENRE=
TTITLE0=Carmelita
TTITLE1=Home
TTITLE2=Oh, Sister
TTITLE3=What's The Matter With The Mill?
TTITLE4=Sweet Wine, Ragtime Bitters
TTITLE5=Hello, Stranger
TTITLE6=Dream Baby
TTITLE7=Colorado Frank
TTITLE8=Rough and Rocky Road
TTITLE9=Jocko's Lament
TTITLE10=Brown-Eyed Boy
TTITLE11=I Believe in You
TTITLE12=Belle of the Ball
TTITLE13=Country Song
TTITLE14=I'll Be Your Baby Tonight
EXTD=
EXTT0=
EXTT1=
EXTT2=
EXTT3=
EXTT4=
EXTT5=
EXTT6=
EXTT7=
EXTT8=
EXTT9=
EXTT10=
EXTT11=
EXTT12=
EXTT13=
EXTT14=
PLAYORDER=
